<?xml version="1.0" encoding="UTF-8" standalone="no"?>
<svg width="144px" height="24px" viewBox="0 0 144 24" version="1.1" xmlns="http://www.w3.org/2000/svg" xmlns:xlink="http://www.w3.org/1999/xlink" xmlns:sketch="http://www.bohemiancoding.com/sketch/ns">
    <!-- Generator: Sketch 3.3.3 (12072) - http://www.bohemiancoding.com/sketch -->
    <title>credit-cards</title>
    <desc>Created with Sketch.</desc>
    <defs></defs>
    <g id="Page-1" stroke="none" stroke-width="1" fill="none" fill-rule="evenodd" sketch:type="MSPage">
        <g id="credit-cards" sketch:type="MSArtboardGroup">
            <g id="Credit-Cards" sketch:type="MSLayerGroup">
                <g id="Discover" transform="translate(108.000000, 0.000000)" sketch:type="MSShapeGroup">
                    <rect id="Base" fill="#FFF9F0" x="0" y="0" width="36" height="24"></rect>
                    <path d="M36,17 L36,24 L6,24 L36,17 Z" id="Lower-Banner" fill="#E6A124"></path>
                    <g id="Logo" transform="translate(6.000000, 9.600000)">
                        <path d="M3.531,2.3658 C3.531,2.967 3.36,3.4272 3.0186,3.747 C2.676,4.0662 2.1816,4.2264 1.5354,4.2264 L0.501,4.2264 L0.501,0.5754 L1.647,0.5754 C2.2434,0.5754 2.706,0.7332 3.0348,1.0476 C3.366,1.362 3.531,1.8018 3.531,2.3658 L3.531,2.3658 Z M2.727,2.3862 C2.727,1.602 2.3802,1.2102 1.689,1.2102 L1.2762,1.2102 L1.2762,3.5868 L1.6086,3.5868 C2.3544,3.5874 2.727,3.1866 2.727,2.3862 L2.727,2.3862 Z" id="Shape" fill="#414042"></path>
                        <path d="M4.1856,4.2264 L4.1856,0.5754 L4.9596,0.5754 L4.9596,4.2264 L4.1856,4.2264 L4.1856,4.2264 Z" id="Shape" fill="#414042"></path>
                        <path d="M8.0346,3.2124 C8.0346,3.543 7.9164,3.8016 7.6782,3.9918 C7.4406,4.1814 7.1112,4.2774 6.6882,4.2774 C6.2994,4.2774 5.9538,4.2036 5.6538,4.0578 L5.6538,3.3384 C5.9004,3.4494 6.1092,3.5256 6.2796,3.5718 C6.45,3.6162 6.6066,3.6384 6.7482,3.6384 C6.9174,3.6384 7.0482,3.6054 7.1388,3.5412 C7.2276,3.477 7.275,3.3792 7.275,3.252 C7.275,3.1806 7.2552,3.117 7.2144,3.0612 C7.1754,3.0048 7.116,2.9508 7.038,2.8998 C6.9606,2.8488 6.8028,2.7654 6.5652,2.6526 C6.3426,2.5476 6.1758,2.4462 6.063,2.3502 C5.9508,2.2542 5.8626,2.142 5.796,2.013 C5.7294,1.884 5.6964,1.734 5.6964,1.563 C5.6964,1.2402 5.8056,0.9864 6.0246,0.8016 C6.2442,0.6162 6.546,0.5244 6.933,0.5244 C7.1226,0.5244 7.3038,0.5466 7.476,0.5916 C7.6482,0.636 7.8288,0.7002 8.0166,0.7812 L7.767,1.383 C7.572,1.3032 7.41,1.2462 7.2828,1.2156 C7.155,1.1844 7.0296,1.1682 6.9072,1.1682 C6.7602,1.1682 6.6474,1.2018 6.57,1.2708 C6.4914,1.3392 6.4524,1.428 6.4524,1.5378 C6.4524,1.6062 6.468,1.665 6.4998,1.7166 C6.5316,1.7676 6.582,1.8162 6.651,1.8636 C6.72,1.911 6.8844,1.9962 7.1418,2.1198 C7.4826,2.283 7.7166,2.4468 7.8438,2.6106 C7.971,2.7732 8.0346,2.9742 8.0346,3.2124 L8.0346,3.2124 Z" id="Shape" fill="#414042"></path>
                        <path d="M10.2468,1.167 C9.9552,1.167 9.7302,1.2774 9.57,1.4952 C9.4092,1.7142 9.3306,2.0202 9.3306,2.4108 C9.3306,3.2244 9.636,3.6318 10.2468,3.6318 C10.5036,3.6318 10.8126,3.5694 11.1786,3.4398 L11.1786,4.089 C10.8786,4.2144 10.5438,4.2762 10.1742,4.2762 C9.6432,4.2762 9.237,4.1142 8.9556,3.792 C8.6742,3.4704 8.5338,3.0078 8.5338,2.4048 C8.5338,2.025 8.6034,1.6926 8.742,1.4076 C8.8794,1.1208 9.0786,0.903 9.3372,0.7506 C9.597,0.5982 9.9,0.522 10.248,0.522 C10.6026,0.522 10.9596,0.6078 11.3166,0.7794 L11.067,1.4088 C10.9296,1.344 10.7934,1.2876 10.6542,1.239 C10.5156,1.1904 10.38,1.167 10.2468,1.167 L10.2468,1.167 Z" id="Shape" fill="#414042"></path>
                        <path d="M17.3754,0.5754 L18.1572,0.5754 L16.917,4.2264 L16.0728,4.2264 L14.8344,0.5754 L15.6168,0.5754 L16.3038,2.748 C16.3416,2.877 16.3824,3.0252 16.4226,3.1968 C16.4622,3.3678 16.488,3.4848 16.4988,3.552 C16.5168,3.399 16.5792,3.1326 16.686,2.748 L17.3754,0.5754 L17.3754,0.5754 Z" id="Shape" fill="#414042"></path>
                        <path d="M20.7192,4.2264 L18.6162,4.2264 L18.6162,0.5754 L20.7192,0.5754 L20.7192,1.2102 L19.3902,1.2102 L19.3902,2.0118 L20.6274,2.0118 L20.6274,2.646 L19.3902,2.646 L19.3902,3.5868 L20.7192,3.5868 L20.7192,4.2264 L20.7192,4.2264 Z" id="Shape" fill="#414042"></path>
                        <path d="M22.2552,2.8254 L22.2552,4.2264 L21.4812,4.2264 L21.4812,0.5754 L22.545,0.5754 C23.0412,0.5754 23.4078,0.6654 23.6466,0.8466 C23.8842,1.0272 24.0036,1.3008 24.0036,1.6692 C24.0036,1.8834 23.9442,2.0754 23.8266,2.2422 C23.7084,2.4096 23.541,2.541 23.325,2.6358 C23.874,3.4554 24.2316,3.9864 24.3984,4.2258 L23.5392,4.2258 L22.6674,2.8248 L22.2552,2.8254 L22.2552,2.8254 Z M22.2552,2.196 L22.5054,2.196 C22.7496,2.196 22.9308,2.1552 23.0472,2.0742 C23.163,1.992 23.2218,1.8636 23.2218,1.689 C23.2218,1.5156 23.1618,1.3932 23.043,1.3194 C22.9242,1.2456 22.74,1.2096 22.4904,1.2096 L22.254,1.2096 L22.2552,2.196 L22.2552,2.196 Z" id="Shape" fill="#414042"></path>
                        <ellipse id="Oval" fill="#E6A124" cx="13.0896" cy="2.4012" rx="1.8258" ry="1.8258"></ellipse>
                    </g>
                </g>
                <g id="American-Express" transform="translate(72.000000, 0.000000)" sketch:type="MSShapeGroup">
                    <rect id="Base" fill="#5EC1EC" x="0" y="0" width="36" height="24"></rect>
                    <g id="Logo" transform="translate(6.600000, 9.000000)" fill="#FFFFFF">
                        <path d="M4.383,5.9532 L4.1088,4.9092 L2.2998,4.9092 L2.0178,5.9532 L0.3648,5.9532 L2.1816,0.3624 L4.1886,0.3624 L6.0276,5.9532 L4.383,5.9532 L4.383,5.9532 Z M3.7968,3.675 L3.5568,2.7612 C3.5004,2.5584 3.4332,2.2962 3.3528,1.9734 C3.273,1.6506 3.2202,1.4196 3.1944,1.2804 C3.1722,1.41 3.1266,1.623 3.0594,1.92 C2.9922,2.217 2.8428,2.8026 2.6118,3.6756 L3.7968,3.675 L3.7968,3.675 Z" id="Shape"></path>
                        <path d="M9.0564,5.9532 L7.9176,1.9422 L7.8834,1.9422 C7.9368,2.625 7.9632,3.1554 7.9632,3.5346 L7.9632,5.9526 L6.6306,5.9526 L6.6306,0.384 L8.6334,0.384 L9.7956,4.338 L9.8262,4.338 L10.9644,0.384 L12.972,0.384 L12.972,5.9526 L11.589,5.9526 L11.589,3.5112 C11.589,3.3846 11.5914,3.2442 11.595,3.0888 C11.5986,2.9334 11.616,2.5542 11.6466,1.95 L11.6124,1.95 L10.4886,5.9532 L9.0564,5.9532 L9.0564,5.9532 Z" id="Shape"></path>
                        <path d="M17.3214,5.9532 L14.0154,5.9532 L14.0154,0.3846 L17.3214,0.3846 L17.3214,1.5924 L15.519,1.5924 L15.519,2.4684 L17.1876,2.4684 L17.1876,3.6756 L15.519,3.6756 L15.519,4.7268 L17.3214,4.7268 L17.3214,5.9532 L17.3214,5.9532 Z" id="Shape"></path>
                        <path d="M23.3124,5.9532 L21.5724,5.9532 L20.4858,4.2132 L19.4124,5.9532 L17.7096,5.9532 L19.5564,3.1044 L17.8194,0.3846 L19.488,0.3846 L20.4936,2.106 L21.4602,0.3846 L23.178,0.3846 L21.4146,3.222 L23.3124,5.9532 L23.3124,5.9532 Z" id="Shape"></path>
                    </g>
                </g>
                <g id="Mastercard" transform="translate(36.000000, 0.000000)" sketch:type="MSShapeGroup">
                    <rect id="Base" fill="#5565AF" x="0" y="0" width="36" height="24"></rect>
                    <g id="Logo" transform="translate(7.000000, 6.000000)">
                        <g id="Group" transform="translate(0.800000, 0.000000)" fill="#EA564B">
                            <path d="M10.65,2.04 C9.5502,0.792 7.944,0 6.15,0 C2.8368,0 0.15,2.6862 0.15,6 C0.15,9.3126 2.8368,12 6.15,12 C7.944,12 9.5502,11.208 10.65,9.9594 C9.7188,8.9022 9.15,7.5204 9.15,6 C9.15,4.4796 9.7188,3.0972 10.65,2.04 L10.65,2.04 Z" id="Shape"></path>
                            <path d="M10.65,2.04 C9.7188,3.0972 9.15,4.4802 9.15,6 C9.15,7.5198 9.7188,8.9022 10.65,9.9594 C11.5812,8.9022 12.15,7.5204 12.15,6 C12.15,4.4796 11.5812,3.0972 10.65,2.04 L10.65,2.04 Z" id="Shape"></path>
                        </g>
                        <path d="M15.95,0 C14.156,0 12.5498,0.792 11.45,2.04 C11.1902,2.3352 10.9628,2.658 10.7636,3 L12.1364,3 C12.3548,3.375 12.5246,3.7794 12.659,4.2 L10.2326,4.2 C10.1108,4.5858 10.0226,4.9854 9.9812,5.4 L12.9086,5.4 C12.929,5.598 12.9494,5.796 12.9494,6 C12.9494,6.2028 12.9374,6.4026 12.9176,6.6 L9.9806,6.6 C10.022,7.0146 10.1102,7.4142 10.232,7.8 L12.6656,7.8 C12.5318,8.2224 12.3524,8.6232 12.134,9 L10.763,9 C10.9616,9.3408 11.1896,9.6642 11.4494,9.9594 C12.5492,11.208 14.1554,12 15.9494,12 C19.2626,12 21.9494,9.3126 21.9494,6 C21.95,2.6862 19.2632,0 15.95,0 L15.95,0 Z" id="Shape" fill="#E9D419"></path>
                    </g>
                </g>
                <g id="Visa" sketch:type="MSShapeGroup">
                    <rect id="Base" fill="#FFFFFF" x="0" y="0" width="36" height="24"></rect>
                    <rect id="Lower-Banner" fill="#E6A124" x="0" y="18" width="36" height="6"></rect>
                    <rect id="Upper-Banner" fill="#5565AF" x="0" y="0" width="36" height="6"></rect>
                    <g id="Logo" transform="translate(9.000000, 8.400000)" fill="#5565AF">
                        <path d="M1.8822,5.6274 C2.1258,4.9374 2.2968,4.4952 2.3976,4.3008 L4.4226,0.1758 L5.904,0.1758 L2.3976,7.029 L0.8322,7.029 L0.237,0.1758 L1.62,0.1758 L1.8588,4.3008 C1.8708,4.4412 1.8774,4.65 1.8774,4.9242 C1.8702,5.2464 1.8612,5.481 1.8492,5.6274 L1.8822,5.6274 L1.8822,5.6274 Z" id="Shape"></path>
                        <path d="M5.2854,7.029 L6.7482,0.1758 L8.178,0.1758 L6.7152,7.029 L5.2854,7.029 L5.2854,7.029 Z" id="Shape"></path>
                        <path d="M12.5604,5.004 C12.5604,5.658 12.3282,6.1734 11.8668,6.5532 C11.4042,6.933 10.7772,7.1226 9.987,7.1226 C9.2958,7.1226 8.7402,6.9822 8.3184,6.7008 L8.3184,5.4162 C8.9208,5.7534 9.4812,5.9226 9.9966,5.9226 C10.3458,5.9226 10.62,5.8572 10.8168,5.7234 C11.0136,5.5908 11.112,5.4096 11.112,5.1774 C11.112,5.0436 11.091,4.9254 11.049,4.8234 C11.007,4.7226 10.9458,4.6278 10.8684,4.5396 C10.7898,4.452 10.5966,4.2936 10.287,4.0614 C9.8556,3.7512 9.552,3.4464 9.3774,3.1422 C9.2016,2.8392 9.1146,2.5128 9.1146,2.1624 C9.1146,1.7592 9.2106,1.3998 9.405,1.0818 C9.5982,0.765 9.8736,0.5184 10.2324,0.3414 C10.59,0.165 11.001,0.0768 11.4678,0.0768 C12.1452,0.0768 12.7662,0.2316 13.329,0.5406 L12.8178,1.6326 C12.3306,1.4016 11.8806,1.2858 11.4678,1.2858 C11.2074,1.2858 10.9956,1.356 10.8306,1.497 C10.6644,1.6374 10.5822,1.824 10.5822,2.055 C10.5822,2.2458 10.6338,2.4126 10.737,2.5542 C10.8402,2.6964 11.0712,2.8848 11.4306,3.1188 C11.808,3.369 12.0918,3.645 12.279,3.9462 C12.4662,4.2492 12.5604,4.6008 12.5604,5.004 L12.5604,5.004 Z" id="Shape"></path>
                        <path d="M17.1588,5.3976 L14.9418,5.3976 L14.1354,7.029 L12.6354,7.029 L16.2258,0.1476 L17.9742,0.1476 L18.663,7.029 L17.271,7.029 L17.1588,5.3976 L17.1588,5.3976 Z M17.088,4.179 L16.9662,2.5386 C16.9344,2.1294 16.9194,1.734 16.9194,1.3524 L16.9194,1.1838 C16.7814,1.5588 16.611,1.956 16.4082,2.3742 L15.5268,4.179 L17.088,4.179 L17.088,4.179 Z" id="Shape"></path>
                    </g>
                </g>
            </g>
        </g>
    </g>
</svg>