<?xml version="1.0" encoding="UTF-8" standalone="no"?>
<svg width="90px" height="37px" viewBox="0 0 90 37" version="1.1" xmlns="http://www.w3.org/2000/svg" xmlns:xlink="http://www.w3.org/1999/xlink" xmlns:sketch="http://www.bohemiancoding.com/sketch/ns">
    <!-- Generator: Sketch 3.3.3 (12072) - http://www.bohemiancoding.com/sketch -->
    <title>footer-logo</title>
    <desc>Created with Sketch.</desc>
    <defs></defs>
    <g id="Page-1" stroke="none" stroke-width="1" fill="none" fill-rule="evenodd" sketch:type="MSPage">
        <g id="footer-logo" sketch:type="MSArtboardGroup">
            <g id="Text-+-Group" sketch:type="MSLayerGroup" transform="translate(3.000000, 2.000000)">
                <g id="Text" transform="translate(36.798780, 4.417323)" fill="#FFFFFF" sketch:type="MSShapeGroup">
                    <path d="M3.1411371,11.1762734 L1.4546613,10.3378752 L3.27577172,6.7853408 C2.39237522,6.7853408 1.64126326,6.46798423 1.0224133,5.83326156 C0.403563344,5.1985389 0.0941430069,4.40988414 0.0941430069,3.46727362 C0.0941430069,2.55308352 0.411830299,1.77982292 1.04721442,1.14746863 C1.68259853,0.515114333 2.44906341,0.198941929 3.34663205,0.198941929 C4.2867171,0.198941929 5.06971589,0.526955996 5.69565192,1.18299397 C6.32158794,1.83903195 6.63455126,2.59334588 6.63455126,3.44595842 C6.63455126,3.76805648 6.58613052,4.09133388 6.48928759,4.41580032 C6.39244465,4.74026676 6.16923685,5.2411691 5.81965749,5.91852239 L3.1411371,11.1762734 Z M3.38914825,4.90249754 C3.75762379,4.90249754 4.06704413,4.76750258 4.31741854,4.49750861 C4.56779295,4.22751464 4.69297828,3.89357975 4.69297828,3.4956939 C4.69297828,3.08833458 4.56188798,2.74729468 4.29970346,2.47256398 C4.03751893,2.19783327 3.73164158,2.06046998 3.38206221,2.06046998 C3.01358667,2.06046998 2.69708037,2.19664911 2.43253382,2.46901144 C2.16798728,2.74137378 2.03571599,3.08122951 2.03571599,3.48858883 C2.03571599,3.89121141 2.1644443,4.22751464 2.42190477,4.49750861 C2.67936525,4.76750258 3.00177652,4.90249754 3.38914825,4.90249754 L3.38914825,4.90249754 Z M8.40285761,1.47074926 L8.40285761,0.461829478 L13.901619,0.461829478 L9.54370889,9.89736097 L13.681952,9.89736097 L13.681952,10.9133858 L7.93517945,10.9133858 L12.3214337,1.47074926 L8.40285761,1.47074926 Z M15.9745062,0.461829478 L21.9480319,0.461829478 L21.9480319,1.49206447 L17.016153,1.49206447 L17.016153,4.76039616 L21.9055157,4.76039616 L21.9055157,5.78352608 L17.016153,5.78352608 L17.016153,9.88315084 L21.9055157,9.88315084 L21.9055157,10.9133858 L15.9745062,10.9133858 L15.9745062,0.461829478 Z M23.9996609,0.461829478 L26.0758685,0.461829478 C27.2332597,0.461829478 28.0174395,0.509196131 28.4284314,0.603930856 C29.0472814,0.746032945 29.5503847,1.05036369 29.9377564,1.51693221 C30.3251281,1.98350073 30.5188111,2.55782139 30.5188111,3.23991142 C30.5188111,3.80831977 30.3853588,4.30803795 30.1184502,4.73908095 C29.8515417,5.17012396 29.4700807,5.49576969 28.974056,5.71602793 C28.4780312,5.93628617 27.7930549,6.04878196 26.9191064,6.0535187 L30.6676178,10.9133858 L29.3779598,10.9133858 L25.6365345,6.0535187 L25.0413078,6.0535187 L25.0413078,10.9133858 L23.9996609,10.9133858 L23.9996609,0.461829478 Z M25.0413078,1.4849594 L25.0413078,5.03749385 L26.8340741,5.05170399 C27.5285087,5.05170399 28.042241,4.98539067 28.3752862,4.85276206 C28.7083314,4.72013344 28.96815,4.50816767 29.1547498,4.21685839 C29.3413496,3.92554911 29.4346481,3.59990337 29.4346481,3.23991142 C29.4346481,2.88939293 29.3401686,2.5708522 29.1512068,2.28427965 C28.962245,1.99770711 28.7142363,1.79284633 28.4071733,1.66969119 C28.1001104,1.54653605 27.5899211,1.4849594 26.8765903,1.4849594 L25.0413078,1.4849594 Z M35.7095527,0.198941929 C36.470124,0.198941929 37.1255755,0.386040206 37.6759268,0.760242372 C38.2262781,1.13444454 38.6514358,1.70639687 38.9514127,2.47611651 C39.2513896,3.24583616 39.4013758,4.31750667 39.4013758,5.69116019 C39.4013758,7.07902392 39.2490276,8.15898359 38.9443267,8.9310716 C38.6396257,9.70315962 38.2298209,10.2703753 37.7149,10.6327356 C37.199979,10.9950959 36.5504325,11.1762734 35.766241,11.1762734 C34.9820494,11.1762734 34.323055,10.9939118 33.7892378,10.6291831 C33.2554207,10.2644544 32.8373489,9.71026455 32.53501,8.96659695 C32.2326711,8.22292935 32.0815039,7.16428467 32.0815039,5.79063115 C32.0815039,3.87225296 32.3767523,2.48204171 32.967258,1.61995571 C33.6239003,0.672608452 34.5379894,0.198941929 35.7095527,0.198941929 L35.7095527,0.198941929 Z M35.7591549,2.08889026 C35.4237477,2.08889026 35.1261373,2.19664939 34.8663148,2.41217089 C34.6064923,2.62769239 34.4080854,2.99833645 34.271088,3.52411417 C34.1340907,4.0498919 34.0655931,4.8196 34.0655931,5.83326156 C34.0655931,7.15481099 34.2226653,8.06780321 34.5368143,8.57226562 C34.8509633,9.07672804 35.2584061,9.32895546 35.7591549,9.32895546 C36.2410076,9.32895546 36.6236495,9.08975387 36.9070922,8.6113435 C37.2519476,8.03346168 37.4243726,7.06718197 37.4243726,5.71247539 C37.4243726,4.33882187 37.2696625,3.39148883 36.9602375,2.87044783 C36.6508125,2.34940684 36.2504557,2.08889026 35.7591549,2.08889026 L35.7591549,2.08889026 Z M40.8719502,0.461829478 L47.7099718,0.461829478 L47.7099718,1.50627461 L43.004846,11.1762734 L41.3254563,10.3591905 L45.2369464,2.3304626 L40.8719502,2.3304626 L40.8719502,0.461829478 Z" id="9ZER07"></path>
                    <path d="M3.41951696,14.4273499 L7.89586509,14.4273499 L7.89586509,15.3104085 L4.30628335,15.3104085 L4.30628335,18.1118356 L7.89586509,18.1118356 L7.89586509,18.9948942 L4.30628335,18.9948942 L4.30628335,23.3858268 L3.41951696,23.3858268 L3.41951696,14.4273499 Z M11.6347799,14.4273499 L12.5276201,14.4273499 L12.5276201,23.3858268 L11.6347799,23.3858268 L11.6347799,14.4273499 Z M16.8860566,14.4273499 L17.7849705,14.4273499 L17.7849705,22.5210384 L21.2166349,22.5210384 L21.2166349,23.3858268 L16.8860566,23.3858268 L16.8860566,14.4273499 Z M24.5364616,23.3858268 L25.8058737,14.4273499 L25.9516435,14.4273499 L29.5837415,21.7780512 L33.179397,14.4273499 L33.3251668,14.4273499 L34.6067264,23.3858268 L33.7260338,23.3858268 L32.8514149,16.9790846 L29.6930688,23.3858268 L29.4683404,23.3858268 L26.2674781,16.9303642 L25.398933,23.3858268 L24.5364616,23.3858268 Z M37.762562,21.7171506 L38.5217798,21.2603962 C39.0562718,22.2469907 39.6737628,22.7402805 40.3742712,22.7402805 C40.6739107,22.7402805 40.9553246,22.6702455 41.2185214,22.5301735 C41.4817182,22.3901014 41.6821497,22.2023265 41.8198219,21.966843 C41.9574941,21.7313596 42.0263292,21.4816696 42.0263292,21.2177657 C42.0263292,20.9173213 41.9251011,20.6229714 41.722642,20.3347072 C41.4432485,19.9368213 40.9330592,19.4577415 40.192059,18.8974532 C39.4470095,18.333105 38.9833851,17.9250751 38.801172,17.6733514 C38.4853358,17.2511052 38.32742,16.7943553 38.32742,16.3030881 C38.32742,15.9133224 38.4205498,15.5580725 38.6068122,15.2373278 C38.7930746,14.916583 39.0552552,14.6638481 39.3933618,14.4791154 C39.7314685,14.2943827 40.0989263,14.2020177 40.4957461,14.2020177 C40.916861,14.2020177 41.310638,14.3065627 41.677089,14.5156558 C42.0435399,14.7247488 42.4312433,15.1094337 42.8402106,15.6697219 L42.1113616,16.2239173 C41.7752795,15.7773108 41.4888041,15.4829608 41.251927,15.3408588 C41.0150499,15.1987567 40.7569184,15.1277067 40.4775249,15.1277067 C40.1171477,15.1277067 39.8225741,15.2373267 39.5937953,15.4565699 C39.3650166,15.6758131 39.2506289,15.945803 39.2506289,16.2665477 C39.2506289,16.4614306 39.2911201,16.6502205 39.3721037,16.8329232 C39.4530874,17.0156259 39.6008803,17.2145659 39.8154869,17.429749 C39.9329132,17.5434307 40.3175797,17.8418406 40.969498,18.3249877 C41.7428917,18.8974561 42.2733266,19.406986 42.5608185,19.8535925 C42.8483104,20.3001991 42.9920542,20.7488289 42.9920542,21.1994956 C42.9920542,21.8491051 42.7460701,22.4134449 42.2540945,22.892532 C41.7621189,23.371619 41.1638613,23.611159 40.4593036,23.611159 C39.9167133,23.611159 39.424745,23.466014 38.9833842,23.1757197 C38.5420234,22.8854255 38.1350867,22.3992406 37.762562,21.7171506 L37.762562,21.7171506 Z" id="FILMS"></path>
                </g>
                <g id="Group" sketch:type="MSShapeGroup">
                    <ellipse id="Outer" stroke="#F37D35" stroke-width="0.777439024" cx="16.3910061" cy="16.4350394" rx="16.3910061" ry="16.4350394"></ellipse>
                    <path d="M16.3622121,25.5367454 C21.3913802,25.5367454 25.4683266,21.4488466 25.4683266,16.406168 C25.4683266,11.3634893 21.3913802,7.27559055 16.3622121,7.27559055 C11.3330439,7.27559055 7.25609756,11.3634893 7.25609756,16.406168 C7.25609756,21.4488466 11.3330439,25.5367454 16.3622121,25.5367454 Z M16.3823679,17.5220472 C16.9858681,17.5220472 17.4751016,17.0314994 17.4751016,16.426378 C17.4751016,15.8212565 16.9858681,15.3307087 16.3823679,15.3307087 C15.7788677,15.3307087 15.2896341,15.8212565 15.2896341,16.426378 C15.2896341,17.0314994 15.7788677,17.5220472 16.3823679,17.5220472 Z M13.6332571,17.4094488 C13.9755586,17.4094488 14.2530488,17.1312132 14.2530488,16.7879921 C14.2530488,16.4447711 13.9755586,16.1665354 13.6332571,16.1665354 C13.2909556,16.1665354 13.0134654,16.4447711 13.0134654,16.7879921 C13.0134654,17.1312132 13.2909556,17.4094488 13.6332571,17.4094488 Z M19.0753303,17.4094488 C19.4176318,17.4094488 19.695122,17.1312132 19.695122,16.7879921 C19.695122,16.4447711 19.4176318,16.1665354 19.0753303,16.1665354 C18.7330288,16.1665354 18.4555386,16.4447711 18.4555386,16.7879921 C18.4555386,17.1312132 18.7330288,17.4094488 19.0753303,17.4094488 Z M17.7795986,15.0708661 C18.1219001,15.0708661 18.3993902,14.7926305 18.3993902,14.4494094 C18.3993902,14.1061884 18.1219001,13.8279528 17.7795986,13.8279528 C17.4372971,13.8279528 17.1598069,14.1061884 17.1598069,14.4494094 C17.1598069,14.7926305 17.4372971,15.0708661 17.7795986,15.0708661 Z M17.7795986,19.488189 C18.1219001,19.488189 18.3993902,19.2099533 18.3993902,18.8667323 C18.3993902,18.5235112 18.1219001,18.2452756 17.7795986,18.2452756 C17.4372971,18.2452756 17.1598069,18.5235112 17.1598069,18.8667323 C17.1598069,19.2099533 17.4372971,19.488189 17.7795986,19.488189 Z M14.9289888,15.0708661 C15.2712903,15.0708661 15.5487805,14.7926305 15.5487805,14.4494094 C15.5487805,14.1061884 15.2712903,13.8279528 14.9289888,13.8279528 C14.5866873,13.8279528 14.3091972,14.1061884 14.3091972,14.4494094 C14.3091972,14.7926305 14.5866873,15.0708661 14.9289888,15.0708661 Z M14.9289888,19.488189 C15.2712903,19.488189 15.5487805,19.2099533 15.5487805,18.8667323 C15.5487805,18.5235112 15.2712903,18.2452756 14.9289888,18.2452756 C14.5866873,18.2452756 14.3091972,18.5235112 14.3091972,18.8667323 C14.3091972,19.2099533 14.5866873,19.488189 14.9289888,19.488189 Z" id="Inner-Inner" fill="#B9683C"></path>
                    <path d="M16.3067835,31.142126 C24.454036,31.142126 31.058689,24.51973 31.058689,16.3505906 C31.058689,8.18145111 24.454036,1.55905512 16.3067835,1.55905512 C8.15953111,1.55905512 1.55487805,8.18145111 1.55487805,16.3505906 C1.55487805,24.51973 8.15953111,31.142126 16.3067835,31.142126 Z M16.3823679,10.1901575 C18.2429613,10.1901575 19.7512703,8.67779652 19.7512703,6.81220472 C19.7512703,4.94661293 18.2429613,3.43425197 16.3823679,3.43425197 C14.5217744,3.43425197 13.0134654,4.94661293 13.0134654,6.81220472 C13.0134654,8.67779652 14.5217744,10.1901575 16.3823679,10.1901575 Z M16.3823679,30.1980315 C18.2429613,30.1980315 19.7512703,28.6856705 19.7512703,26.8200787 C19.7512703,24.9544869 18.2429613,23.442126 16.3823679,23.442126 C14.5217744,23.442126 13.0134654,24.9544869 13.0134654,26.8200787 C13.0134654,28.6856705 14.5217744,30.1980315 16.3823679,30.1980315 Z M8.08968496,15.1271654 C9.9502784,15.1271654 11.4585874,13.6148044 11.4585874,11.7492126 C11.4585874,9.88362081 9.9502784,8.37125984 8.08968496,8.37125984 C6.22909152,8.37125984 4.72078252,9.88362081 4.72078252,11.7492126 C4.72078252,13.6148044 6.22909152,15.1271654 8.08968496,15.1271654 Z M8.08968496,25.2610236 C9.9502784,25.2610236 11.4585874,23.7486627 11.4585874,21.8830709 C11.4585874,20.0174791 9.9502784,18.5051181 8.08968496,18.5051181 C6.22909152,18.5051181 4.72078252,20.0174791 4.72078252,21.8830709 C4.72078252,23.7486627 6.22909152,25.2610236 8.08968496,25.2610236 Z M25.1933435,15.1271654 C27.0539369,15.1271654 28.5622459,13.6148044 28.5622459,11.7492126 C28.5622459,9.88362081 27.0539369,8.37125984 25.1933435,8.37125984 C23.3327501,8.37125984 21.8244411,9.88362081 21.8244411,11.7492126 C21.8244411,13.6148044 23.3327501,15.1271654 25.1933435,15.1271654 Z M25.1933435,25.2610236 C27.0539369,25.2610236 28.5622459,23.7486627 28.5622459,21.8830709 C28.5622459,20.0174791 27.0539369,18.5051181 25.1933435,18.5051181 C23.3327501,18.5051181 21.8244411,20.0174791 21.8244411,21.8830709 C21.8244411,23.7486627 23.3327501,25.2610236 25.1933435,25.2610236 Z M16.3823679,17.5220472 C16.9858681,17.5220472 17.4751016,17.0314994 17.4751016,16.426378 C17.4751016,15.8212565 16.9858681,15.3307087 16.3823679,15.3307087 C15.7788677,15.3307087 15.2896341,15.8212565 15.2896341,16.426378 C15.2896341,17.0314994 15.7788677,17.5220472 16.3823679,17.5220472 Z M13.6332571,17.4094488 C13.9755586,17.4094488 14.2530488,17.1312132 14.2530488,16.7879921 C14.2530488,16.4447711 13.9755586,16.1665354 13.6332571,16.1665354 C13.2909556,16.1665354 13.0134654,16.4447711 13.0134654,16.7879921 C13.0134654,17.1312132 13.2909556,17.4094488 13.6332571,17.4094488 Z M19.0753303,17.4094488 C19.4176318,17.4094488 19.695122,17.1312132 19.695122,16.7879921 C19.695122,16.4447711 19.4176318,16.1665354 19.0753303,16.1665354 C18.7330288,16.1665354 18.4555386,16.4447711 18.4555386,16.7879921 C18.4555386,17.1312132 18.7330288,17.4094488 19.0753303,17.4094488 Z M17.7795986,15.0708661 C18.1219001,15.0708661 18.3993902,14.7926305 18.3993902,14.4494094 C18.3993902,14.1061884 18.1219001,13.8279528 17.7795986,13.8279528 C17.4372971,13.8279528 17.1598069,14.1061884 17.1598069,14.4494094 C17.1598069,14.7926305 17.4372971,15.0708661 17.7795986,15.0708661 Z M17.7795986,19.488189 C18.1219001,19.488189 18.3993902,19.2099533 18.3993902,18.8667323 C18.3993902,18.5235112 18.1219001,18.2452756 17.7795986,18.2452756 C17.4372971,18.2452756 17.1598069,18.5235112 17.1598069,18.8667323 C17.1598069,19.2099533 17.4372971,19.488189 17.7795986,19.488189 Z M14.9289888,15.0708661 C15.2712903,15.0708661 15.5487805,14.7926305 15.5487805,14.4494094 C15.5487805,14.1061884 15.2712903,13.8279528 14.9289888,13.8279528 C14.5866873,13.8279528 14.3091972,14.1061884 14.3091972,14.4494094 C14.3091972,14.7926305 14.5866873,15.0708661 14.9289888,15.0708661 Z M14.9289888,19.488189 C15.2712903,19.488189 15.5487805,19.2099533 15.5487805,18.8667323 C15.5487805,18.5235112 15.2712903,18.2452756 14.9289888,18.2452756 C14.5866873,18.2452756 14.3091972,18.5235112 14.3091972,18.8667323 C14.3091972,19.2099533 14.5866873,19.488189 14.9289888,19.488189 Z" id="Inner" fill="#F37D35"></path>
                    <path d="M11.9207317,17.4094488 L11.9207317,16.1102362 C11.9207317,16.1102362 3.1097561,16.1102362 3.1097561,16.6299213 C3.1097561,17.1496063 11.9207317,17.4094488 11.9207317,17.4094488 Z" id="Path-2" fill="#B9693D"></path>
                    <path d="M29.5426829,17.4094488 L29.5426829,16.1102362 C29.5426829,16.1102362 20.7317073,16.1102362 20.7317073,16.6299213 C20.7317073,17.1496063 29.5426829,17.4094488 29.5426829,17.4094488 Z" id="Path-2-Copy" fill="#B9693D" transform="translate(25.137195, 16.759843) rotate(-180.000000) translate(-25.137195, -16.759843) "></path>
                    <path d="M16.3262195,25.0604764 L16.3262195,23.7612638 C16.3262195,23.7612638 7.5152439,23.7612638 7.5152439,24.2809488 C7.5152439,24.8006339 16.3262195,25.0604764 16.3262195,25.0604764 Z" id="Path-2" fill="#B9693D" transform="translate(11.920732, 24.410870) rotate(-60.000000) translate(-11.920732, -24.410870) "></path>
                    <path d="M25.1371951,9.75842124 L25.1371951,8.45920864 C25.1371951,8.45920864 16.3262195,8.45920864 16.3262195,8.97889368 C16.3262195,9.49857872 25.1371951,9.75842124 25.1371951,9.75842124 Z" id="Path-2-Copy" fill="#B9693D" transform="translate(20.731707, 9.108815) rotate(-240.000000) translate(-20.731707, -9.108815) "></path>
                    <path d="M25.1371951,25.0604764 L25.1371951,23.7612638 C25.1371951,23.7612638 16.3262195,23.7612638 16.3262195,24.2809488 C16.3262195,24.8006339 25.1371951,25.0604764 25.1371951,25.0604764 Z" id="Path-2" fill="#B9693D" transform="translate(20.731707, 24.410870) rotate(-120.000000) translate(-20.731707, -24.410870) "></path>
                    <path d="M16.3262195,9.75842124 L16.3262195,8.45920864 C16.3262195,8.45920864 7.5152439,8.45920864 7.5152439,8.97889368 C7.5152439,9.49857872 16.3262195,9.75842124 16.3262195,9.75842124 Z" id="Path-2-Copy" fill="#B9693D" transform="translate(11.920732, 9.108815) rotate(-300.000000) translate(-11.920732, -9.108815) "></path>
                </g>
            </g>
        </g>
    </g>
</svg>