<?xml version="1.0" encoding="UTF-8" standalone="no"?>
<svg width="220px" height="90px" viewBox="0 0 220 90" version="1.1" xmlns="http://www.w3.org/2000/svg" xmlns:xlink="http://www.w3.org/1999/xlink" xmlns:sketch="http://www.bohemiancoding.com/sketch/ns">
    <!-- Generator: Sketch 3.3.3 (12072) - http://www.bohemiancoding.com/sketch -->
    <title>logo</title>
    <desc>Created with Sketch.</desc>
    <defs></defs>
    <g id="Page-1" stroke="none" stroke-width="1" fill="none" fill-rule="evenodd" sketch:type="MSPage">
        <g id="logo" sketch:type="MSArtboardGroup">
            <g id="Logo" sketch:type="MSLayerGroup" transform="translate(7.000000, 5.000000)">
                <g id="Text" transform="translate(89.176109, 10.676013)" fill="#734E3E" sketch:type="MSShapeGroup">
                    <path d="M91.5116834,52.4871267 L93.3515294,51.3832191 C94.6467874,53.7676714 96.1431806,54.9598797 97.8407536,54.9598797 C98.5668831,54.9598797 99.2488459,54.7906156 99.8866624,54.4520822 C100.524479,54.1135489 101.010193,53.6597247 101.34382,53.0905962 C101.677447,52.5214677 101.844259,51.9180042 101.844259,51.2801877 C101.844259,50.5540582 101.598948,49.8426582 101.10832,49.1459664 C100.431253,48.1843354 99.1948893,47.0264705 97.3991906,45.6723371 C95.5936793,44.3083911 94.470158,43.3222435 94.0285927,42.7138647 C93.2632129,41.6933584 92.8805288,40.5894618 92.8805288,39.4021419 C92.8805288,38.4601361 93.1062143,37.6015499 93.5575921,36.8263575 C94.0089699,36.0511652 94.6443237,35.4403425 95.4636726,34.9938709 C96.2830214,34.5473994 97.173498,34.324167 98.135129,34.324167 C99.1556353,34.324167 100.109893,34.5768366 100.997929,35.0821835 C101.885966,35.5875304 102.825505,36.5172566 103.816573,37.8713901 L102.050321,39.210798 C101.235879,38.1314162 100.54165,37.4200162 99.9676156,37.0765766 C99.3935808,36.733137 98.7680394,36.5614197 98.0909727,36.5614197 C97.2176547,36.5614197 96.5038016,36.8263549 95.9493919,37.3562332 C95.3949822,37.8861115 95.1177815,38.538637 95.1177815,39.3138293 C95.1177815,39.7848323 95.2159057,40.2411095 95.4121569,40.6826748 C95.6084081,41.12424 95.9665612,41.6050483 96.486627,42.125114 C96.7711912,42.3998657 97.7033706,43.1210782 99.2831929,44.2887729 C101.157392,45.672344 102.442818,46.903802 103.13951,47.9831837 C103.836202,49.0625654 104.184543,50.1468371 104.184543,51.2360314 C104.184543,52.8060412 103.588438,54.1699667 102.396212,55.3278489 C101.203986,56.4857311 99.754202,57.0646636 98.0468164,57.0646636 C96.7319332,57.0646636 95.5397249,56.7138698 94.4701558,56.0122716 C93.4005866,55.3106735 92.414439,54.135637 91.5116834,52.4871267 L91.5116834,52.4871267 Z" id="Path"></path>
                    <path d="M59.4602904,56.5200691 L62.5365129,34.8687614 L62.8897633,34.8687614 L71.6915866,52.6343144 L80.4050972,34.8687614 L80.7583477,34.8687614 L83.8640077,56.5200691 L81.7297864,56.5200691 L79.6102838,41.0359252 L71.9565244,56.5200691 L71.41193,56.5200691 L63.6551393,40.9181751 L61.5503554,56.5200691 L59.4602904,56.5200691 Z" id="FILMS"></path>
                    <path d="M40.9207264,34.8687614 L43.0991041,34.8687614 L43.0991041,54.4300041 L51.415208,54.4300041 L51.415208,56.5200691 L40.9207264,56.5200691 L40.9207264,34.8687614 Z" id="Path"></path>
                    <path d="M28.1950758,34.8687614 L30.3587347,34.8687614 L30.3587347,56.5200691 L28.1950758,56.5200691 L28.1950758,34.8687614 Z" id="Path"></path>
                    <path d="M8.28666639,34.8687614 L19.1343984,34.8687614 L19.1343984,37.0029828 L10.4356065,37.0029828 L10.4356065,43.773616 L19.1343984,43.773616 L19.1343984,45.9078374 L10.4356065,45.9078374 L10.4356065,56.5200691 L8.28666639,56.5200691 L8.28666639,34.8687614 Z" id="Path"></path>
                    <path d="M99.046801,1.11617324 L115.617681,1.11617324 L115.617681,3.64044195 L104.215542,27.0113924 L100.145802,25.0366244 L109.624689,5.63238189 L99.046801,5.63238189 L99.046801,1.11617324 Z" id="Path"></path>
                    <path d="M86.5365353,0.480813088 C88.3796614,0.480813088 89.9680459,0.933001828 91.3017364,1.83739287 C92.635427,2.74178392 93.6657305,4.12410772 94.3926777,5.98440576 C95.119625,7.84470379 95.4830931,10.4347722 95.4830931,13.7546887 C95.4830931,17.1089492 95.1139011,19.7190512 94.3755058,21.5850733 C93.6371106,23.4510953 92.6440126,24.8219713 91.3961819,25.6977424 C90.1483512,26.5735134 88.5742765,27.0113924 86.6739105,27.0113924 C84.7735445,27.0113924 83.1765741,26.5706515 81.8829515,25.6891564 C80.5893289,24.8076614 79.5761971,23.4682669 78.8435259,21.6709328 C78.1108547,19.8735987 77.7445246,17.3150117 77.7445246,13.9950952 C77.7445246,9.35866014 78.4600131,5.99872609 79.8910116,3.91519229 C81.4822819,1.62559471 83.6974343,0.480813088 86.5365353,0.480813088 Z M86.6567386,5.04853743 C85.8439314,5.04853743 85.122719,5.30897524 84.4930797,5.82985869 C83.8634403,6.35074214 83.3826321,7.24653376 83.0506404,8.51726042 C82.7186488,9.78798708 82.5526554,11.6482572 82.5526554,14.0981266 C82.5526554,17.2921152 82.9332953,19.4986818 83.6945865,20.7178925 C84.4558777,21.9371032 85.4432519,22.5466995 86.6567386,22.5466995 C87.8244333,22.5466995 88.7517065,21.9685847 89.4385857,20.812338 C90.2742888,19.4156834 90.6921341,17.0803289 90.6921341,13.8062044 C90.6921341,10.4862879 90.3172182,8.19672466 89.567375,6.93744599 C88.8175317,5.67816732 87.8473293,5.04853743 86.6567386,5.04853743 Z" id="Path"></path>
                    <path d="M58.1594377,1.11617324 L63.1908033,1.11617324 C65.9955603,1.11617324 67.8958978,1.2306514 68.8918727,1.45961116 C70.3915591,1.8030508 71.6107516,2.53857299 72.5494866,3.6661998 C73.4882216,4.79382661 73.9575821,6.18187432 73.9575821,7.83038458 C73.9575821,9.20414313 73.6341812,10.4118877 72.9873699,11.4536546 C72.3405586,12.4954215 71.4161475,13.2824589 70.2141087,13.8147903 C69.01207,14.3471218 67.3521366,14.6190074 65.2342589,14.6304554 L74.3181919,26.3760323 L71.1929068,26.3760323 L62.1261457,14.6304554 L60.6837064,14.6304554 L60.6837064,26.3760323 L58.1594377,26.3760323 L58.1594377,1.11617324 Z M60.6837064,3.58892627 L60.6837064,12.1748743 L65.0281961,12.2092181 C66.7110504,12.2092181 67.9560004,12.0489486 68.7630835,11.728405 C69.5701667,11.4078613 70.1997966,10.8955715 70.6519921,10.1915203 C71.1041876,9.48746902 71.330282,8.70043166 71.330282,7.83038458 C71.330282,6.98323347 71.1013256,6.21336783 70.6434061,5.52076457 C70.1854866,4.8281613 69.5844763,4.33304325 68.840357,4.03539556 C68.0962378,3.73774788 66.8598737,3.58892627 65.1312275,3.58892627 L60.6837064,3.58892627 Z" id="Path"></path>
                    <path d="M38.7117261,1.11617324 L53.1876344,1.11617324 L53.1876344,3.60609816 L41.2359948,3.60609816 L41.2359948,11.5051703 L53.084603,11.5051703 L53.084603,13.9779233 L41.2359948,13.9779233 L41.2359948,23.8861073 L53.084603,23.8861073 L53.084603,26.3760323 L38.7117261,26.3760323 L38.7117261,1.11617324 Z" id="Path"></path>
                    <path d="M20.3630158,3.55458247 L20.3630158,1.11617324 L33.6884071,1.11617324 L23.127691,23.9204511 L33.1560783,23.9204511 L33.1560783,26.3760323 L19.2296706,26.3760323 L29.8590743,3.55458247 L20.3630158,3.55458247 Z" id="Path"></path>
                    <g id="Path">
                        <path d="M7.61205619,27.0113924 L3.52514494,24.9851087 L7.93832221,16.3991607 C5.79754847,16.3991607 3.9773457,15.632157 2.47765928,14.0981266 C0.977972865,12.5640962 0.228140904,10.6580348 0.228140904,8.37988525 C0.228140904,6.17042358 0.998006543,4.30156759 2.53776092,2.7732612 C4.07751529,1.24495482 5.93492347,0.480813088 8.11004117,0.480813088 C10.3881908,0.480813088 12.2856663,1.27357436 13.8025247,2.85912068 C15.3193831,4.44466701 16.0778009,6.26773174 16.0778009,8.32836956 C16.0778009,9.10683274 15.9604608,9.8881462 15.725777,10.6723334 C15.4910933,11.4565205 14.950184,12.6671271 14.1030329,14.3041894 L7.61205619,27.0113924 Z M8.21307255,11.8486082 C9.1060156,11.8486082 9.85584756,11.5223455 10.4625909,10.8698102 C11.0693343,10.2172749 11.3727014,9.41020382 11.3727014,8.44857283 C11.3727014,7.46404587 11.0550245,6.63980311 10.4196612,5.97581981 C9.78429785,5.31183651 9.04305176,4.97984984 8.19590065,4.97984984 C7.30295759,4.97984984 6.53595391,5.30897456 5.89486659,5.96723386 C5.25377926,6.62549317 4.93324041,7.44687398 4.93324041,8.43140094 C4.93324041,9.40447991 5.2451934,10.2172749 5.86910874,10.8698102 C6.49302408,11.5223455 7.27433754,11.8486082 8.21307255,11.8486082 Z"></path>
                    </g>
                </g>
                <g id="Art" sketch:type="MSShapeGroup">
                    <circle id="Outer" stroke="#F37D35" cx="39.7210486" cy="39.7210486" r="39.7210486"></circle>
                    <path d="M39.6512707,61.7185199 C51.8386759,61.7185199 61.7185199,51.8386759 61.7185199,39.6512707 C61.7185199,27.4638655 51.8386759,17.5840215 39.6512707,17.5840215 C27.4638655,17.5840215 17.5840215,27.4638655 17.5840215,39.6512707 C17.5840215,51.8386759 27.4638655,61.7185199 39.6512707,61.7185199 Z M39.7001152,42.3481851 C41.1626039,42.3481851 42.3481851,41.1626039 42.3481851,39.7001152 C42.3481851,38.2376266 41.1626039,37.0520453 39.7001152,37.0520453 C38.2376266,37.0520453 37.0520453,38.2376266 37.0520453,39.7001152 C37.0520453,41.1626039 38.2376266,42.3481851 39.7001152,42.3481851 Z M33.0380737,42.0760515 C33.867588,42.0760515 34.5400423,41.4035973 34.5400423,40.574083 C34.5400423,39.7445687 33.867588,39.0721145 33.0380737,39.0721145 C32.2085594,39.0721145 31.5361052,39.7445687 31.5361052,40.574083 C31.5361052,41.4035973 32.2085594,42.0760515 33.0380737,42.0760515 Z M46.2260899,42.0760515 C47.0556042,42.0760515 47.7280584,41.4035973 47.7280584,40.574083 C47.7280584,39.7445687 47.0556042,39.0721145 46.2260899,39.0721145 C45.3965756,39.0721145 44.7241214,39.7445687 44.7241214,40.574083 C44.7241214,41.4035973 45.3965756,42.0760515 46.2260899,42.0760515 Z M43.086086,36.4240446 C43.9156003,36.4240446 44.5880545,35.7515904 44.5880545,34.9220761 C44.5880545,34.0925618 43.9156003,33.4201075 43.086086,33.4201075 C42.2565717,33.4201075 41.5841175,34.0925618 41.5841175,34.9220761 C41.5841175,35.7515904 42.2565717,36.4240446 43.086086,36.4240446 Z M43.086086,47.1000576 C43.9156003,47.1000576 44.5880545,46.4276034 44.5880545,45.5980891 C44.5880545,44.7685748 43.9156003,44.0961206 43.086086,44.0961206 C42.2565717,44.0961206 41.5841175,44.7685748 41.5841175,45.5980891 C41.5841175,46.4276034 42.2565717,47.1000576 43.086086,47.1000576 Z M36.1780776,36.4240446 C37.0075919,36.4240446 37.6800461,35.7515904 37.6800461,34.9220761 C37.6800461,34.0925618 37.0075919,33.4201075 36.1780776,33.4201075 C35.3485633,33.4201075 34.6761091,34.0925618 34.6761091,34.9220761 C34.6761091,35.7515904 35.3485633,36.4240446 36.1780776,36.4240446 Z M36.1780776,47.1000576 C37.0075919,47.1000576 37.6800461,46.4276034 37.6800461,45.5980891 C37.6800461,44.7685748 37.0075919,44.0961206 36.1780776,44.0961206 C35.3485633,44.0961206 34.6761091,44.7685748 34.6761091,45.5980891 C34.6761091,46.4276034 35.3485633,47.1000576 36.1780776,47.1000576 Z" id="Inner-Inner" fill-opacity="0.560000002" fill="#F37D35"></path>
                    <path d="M39.5169483,75.2658921 C59.2605448,75.2658921 75.2658921,59.2605448 75.2658921,39.5169483 C75.2658921,19.7733519 59.2605448,3.76800461 39.5169483,3.76800461 C19.7733519,3.76800461 3.76800461,19.7733519 3.76800461,39.5169483 C3.76800461,59.2605448 19.7733519,75.2658921 39.5169483,75.2658921 Z M39.7001152,24.6280968 C44.2089734,24.6280968 47.8641252,20.972945 47.8641252,16.4640868 C47.8641252,11.9552286 44.2089734,8.30007682 39.7001152,8.30007682 C35.191257,8.30007682 31.5361052,11.9552286 31.5361052,16.4640868 C31.5361052,20.972945 35.191257,24.6280968 39.7001152,24.6280968 Z M39.7001152,72.9841559 C44.2089734,72.9841559 47.8641252,69.3290042 47.8641252,64.820146 C47.8641252,60.3112877 44.2089734,56.656136 39.7001152,56.656136 C35.191257,56.656136 31.5361052,60.3112877 31.5361052,64.820146 C31.5361052,69.3290042 35.191257,72.9841559 39.7001152,72.9841559 Z M19.6040906,36.5601114 C24.1129489,36.5601114 27.7681006,32.9049596 27.7681006,28.3961014 C27.7681006,23.8872432 24.1129489,20.2320914 19.6040906,20.2320914 C15.0952324,20.2320914 11.4400807,23.8872432 11.4400807,28.3961014 C11.4400807,32.9049596 15.0952324,36.5601114 19.6040906,36.5601114 Z M19.6040906,61.0521413 C24.1129489,61.0521413 27.7681006,57.3969896 27.7681006,52.8881314 C27.7681006,48.3792731 24.1129489,44.7241214 19.6040906,44.7241214 C15.0952324,44.7241214 11.4400807,48.3792731 11.4400807,52.8881314 C11.4400807,57.3969896 15.0952324,61.0521413 19.6040906,61.0521413 Z M61.0521413,36.5601114 C65.5609996,36.5601114 69.2161513,32.9049596 69.2161513,28.3961014 C69.2161513,23.8872432 65.5609996,20.2320914 61.0521413,20.2320914 C56.5432831,20.2320914 52.8881314,23.8872432 52.8881314,28.3961014 C52.8881314,32.9049596 56.5432831,36.5601114 61.0521413,36.5601114 Z M61.0521413,61.0521413 C65.5609996,61.0521413 69.2161513,57.3969896 69.2161513,52.8881314 C69.2161513,48.3792731 65.5609996,44.7241214 61.0521413,44.7241214 C56.5432831,44.7241214 52.8881314,48.3792731 52.8881314,52.8881314 C52.8881314,57.3969896 56.5432831,61.0521413 61.0521413,61.0521413 Z M39.7001152,42.3481851 C41.1626039,42.3481851 42.3481851,41.1626039 42.3481851,39.7001152 C42.3481851,38.2376266 41.1626039,37.0520453 39.7001152,37.0520453 C38.2376266,37.0520453 37.0520453,38.2376266 37.0520453,39.7001152 C37.0520453,41.1626039 38.2376266,42.3481851 39.7001152,42.3481851 Z M33.0380737,42.0760515 C33.867588,42.0760515 34.5400423,41.4035973 34.5400423,40.574083 C34.5400423,39.7445687 33.867588,39.0721145 33.0380737,39.0721145 C32.2085594,39.0721145 31.5361052,39.7445687 31.5361052,40.574083 C31.5361052,41.4035973 32.2085594,42.0760515 33.0380737,42.0760515 Z M46.2260899,42.0760515 C47.0556042,42.0760515 47.7280584,41.4035973 47.7280584,40.574083 C47.7280584,39.7445687 47.0556042,39.0721145 46.2260899,39.0721145 C45.3965756,39.0721145 44.7241214,39.7445687 44.7241214,40.574083 C44.7241214,41.4035973 45.3965756,42.0760515 46.2260899,42.0760515 Z M43.086086,36.4240446 C43.9156003,36.4240446 44.5880545,35.7515904 44.5880545,34.9220761 C44.5880545,34.0925618 43.9156003,33.4201075 43.086086,33.4201075 C42.2565717,33.4201075 41.5841175,34.0925618 41.5841175,34.9220761 C41.5841175,35.7515904 42.2565717,36.4240446 43.086086,36.4240446 Z M43.086086,47.1000576 C43.9156003,47.1000576 44.5880545,46.4276034 44.5880545,45.5980891 C44.5880545,44.7685748 43.9156003,44.0961206 43.086086,44.0961206 C42.2565717,44.0961206 41.5841175,44.7685748 41.5841175,45.5980891 C41.5841175,46.4276034 42.2565717,47.1000576 43.086086,47.1000576 Z M36.1780776,36.4240446 C37.0075919,36.4240446 37.6800461,35.7515904 37.6800461,34.9220761 C37.6800461,34.0925618 37.0075919,33.4201075 36.1780776,33.4201075 C35.3485633,33.4201075 34.6761091,34.0925618 34.6761091,34.9220761 C34.6761091,35.7515904 35.3485633,36.4240446 36.1780776,36.4240446 Z M36.1780776,47.1000576 C37.0075919,47.1000576 37.6800461,46.4276034 37.6800461,45.5980891 C37.6800461,44.7685748 37.0075919,44.0961206 36.1780776,44.0961206 C35.3485633,44.0961206 34.6761091,44.7685748 34.6761091,45.5980891 C34.6761091,46.4276034 35.3485633,47.1000576 36.1780776,47.1000576 Z" id="Inner" fill="#F37D35"></path>
                    <path d="M28.8880353,42.0760515 L28.8880353,38.9360476 C28.8880353,38.9360476 7.53600922,38.9360476 7.53600922,40.1920492 C7.53600922,41.4480507 28.8880353,42.0760515 28.8880353,42.0760515 Z" id="Path-2" fill-opacity="0.5" fill="#FFFFFF"></path>
                    <path d="M50.2400615,38.9360476 L50.2400615,42.0760515 C50.2400615,42.0760515 71.5920876,42.0760515 71.5920876,40.8200499 C71.5920876,39.5640484 50.2400615,38.9360476 50.2400615,38.9360476 L50.2400615,38.9360476 Z" id="Path-2-Copy" fill-opacity="0.5" fill="#FFFFFF"></path>
                    <path d="M35.6945282,50.6912957 L32.9668891,49.1164925 C32.9668891,49.1164925 22.2582277,67.6644382 23.3492833,68.2943594 C24.440339,68.9242807 35.6945282,50.6912957 35.6945282,50.6912957 L35.6945282,50.6912957 Z" id="Path-2" fill-opacity="0.5" fill="#FFFFFF"></path>
                    <path d="M43.6755505,30.5685469 L46.4031896,32.14335 C46.4031896,32.14335 57.111851,13.5954044 56.0207954,12.9654831 C54.9297398,12.3355618 43.6755505,30.5685469 43.6755505,30.5685469 L43.6755505,30.5685469 Z" id="Path-2-Copy" fill-opacity="0.5" fill="#FFFFFF"></path>
                    <path d="M46.4031896,49.1164925 L43.6755505,50.6912957 C43.6755505,50.6912957 54.384212,69.2392413 55.4752676,68.6093201 C56.5663232,67.9793988 46.4031896,49.1164925 46.4031896,49.1164925 L46.4031896,49.1164925 Z" id="Path-2" fill-opacity="0.5" fill="#FFFFFF"></path>
                    <path d="M32.9668891,32.14335 L35.6945282,30.5685469 C35.6945282,30.5685469 24.9858668,12.0206012 23.8948112,12.6505225 C22.8037555,13.2804437 32.9668891,32.14335 32.9668891,32.14335 L32.9668891,32.14335 Z" id="Path-2-Copy" fill-opacity="0.5" fill="#FFFFFF"></path>
                </g>
            </g>
        </g>
    </g>
</svg>