<svg width="144" height="24" viewBox="0 0 144 24" xmlns="http://www.w3.org/2000/svg"><title>credit-cards</title><desc>Created with Sketch.</desc><g fill="none"><g><path id="Base" fill="#FFF9F0" d="M108 0h36v24h-36z"/><path d="M144 17v7h-30l30-7z" id="Lower-Banner" fill="#E6A124"/><g id="Logo" transform="translate(108) translate(6 9.6)"><path d="M3.53 2.366c0 .6-.17 1.06-.51 1.38-.344.32-.838.48-1.485.48H.5V.576h1.147c.596 0 1.06.157 1.388.472.33.314.496.754.496 1.318zm-.803.02c0-.784-.347-1.176-1.038-1.176h-.414v2.377h.333c.744 0 1.117-.4 1.117-1.2zM4.186 4.226V.576h.774v3.65h-.774zM8.035 3.212c0 .33-.12.59-.357.78-.237.19-.567.285-.99.285-.39 0-.734-.073-1.034-.22v-.72c.246.112.455.19.626.235.17.044.327.066.468.066.17 0 .3-.033.39-.097.09-.063.137-.16.137-.288 0-.07-.02-.135-.06-.19-.04-.057-.1-.11-.177-.162-.077-.05-.235-.135-.473-.247-.222-.105-.39-.207-.502-.303-.112-.096-.2-.208-.267-.337-.067-.13-.1-.28-.1-.45 0-.323.11-.577.33-.76.218-.187.52-.28.907-.28.19 0 .37.024.543.07.172.043.353.107.54.188l-.25.603c-.194-.08-.356-.137-.483-.167-.128-.032-.253-.048-.376-.048-.147 0-.26.034-.337.103-.08.07-.118.158-.118.268 0 .068.016.127.048.18.032.05.082.098.15.146.07.047.234.132.492.256.34.163.575.327.702.49.127.163.19.364.19.602zM10.247 1.167c-.292 0-.517.11-.677.328-.16.22-.24.525-.24.916 0 .814.306 1.222.917 1.222.257 0 .566-.063.932-.192v.65c-.3.124-.636.186-1.006.186-.53 0-.937-.162-1.218-.484-.282-.322-.422-.784-.422-1.387 0-.38.07-.712.208-.997.137-.287.337-.505.595-.657.26-.152.563-.228.91-.228.356 0 .713.086 1.07.257l-.25.63c-.137-.066-.274-.122-.413-.17-.138-.05-.274-.073-.407-.073zM17.375.575h.782l-1.24 3.65h-.844l-1.24-3.65h.784l.687 2.173c.038.13.078.277.12.45.038.17.064.287.075.354.017-.153.08-.42.186-.804l.69-2.173zM20.72 4.226h-2.104V.576h2.103v.634h-1.33v.802h1.237v.634H19.39v.94h1.33v.64zM22.255 2.825v1.4h-.774V.576h1.065c.496 0 .863.09 1.102.272.237.18.357.454.357.822 0 .213-.06.405-.177.572-.12.168-.286.3-.502.394.55.82.907 1.35 1.073 1.59h-.86l-.87-1.4h-.413zm0-.63h.25c.245 0 .426-.04.542-.12.116-.083.175-.21.175-.386 0-.174-.06-.297-.18-.37-.118-.074-.302-.11-.552-.11h-.236v.986z" id="Shape" fill="#414042"/><ellipse fill="#E6A124" cx="13.09" cy="2.401" rx="1.826" ry="1.826"/></g></g><g><path id="Base" fill="#5EC1EC" d="M72 0h36v24H72z"/><g id="Logo" fill="#fff"><path d="M82.983 14.953l-.274-1.044H80.9l-.282 1.043h-1.653l1.817-5.59h2.007l1.838 5.59h-1.645zM-74.803-5.325l-.24-.914c-.057-.202-.124-.464-.204-.787-.08-.322-.133-.553-.16-.693-.02.13-.066.343-.134.64s-.217.883-.448 1.756h1.185zM87.656 14.953l-1.138-4.01h-.035c.054.682.08 1.212.08 1.592v2.418H85.23v-5.57h2.003l1.163 3.955h.03l1.138-3.954h2.008v5.57H90.19V12.51c0-.125 0-.266.005-.42.004-.157.02-.536.052-1.14h-.035l-1.123 4.003h-1.434zM95.92 14.953h-3.305V9.385h3.306v1.207h-1.8v.876h1.668v1.208h-1.67v1.05h1.803v1.227zM101.912 14.953h-1.74l-1.086-1.74-1.074 1.74H96.31l1.846-2.85-1.737-2.718h1.668l1.006 1.72.966-1.72h1.718l-1.763 2.837 1.897 2.73z" id="Shape"/></g></g><g><path id="Base" fill="#5565AF" d="M36 0h36v24H36z"/><g id="Logo"><g fill="#EA564B"><path d="M54.45 8.04C53.35 6.792 51.744 6 49.95 6c-3.313 0-6 2.686-6 6 0 3.313 2.687 6 6 6 1.794 0 3.4-.792 4.5-2.04-.93-1.058-1.5-2.44-1.5-3.96s.57-2.903 1.5-3.96zM54.45 8.04c-.93 1.057-1.5 2.44-1.5 3.96s.57 2.902 1.5 3.96c.93-1.058 1.5-2.44 1.5-3.96s-.57-2.903-1.5-3.96z" id="Shape"/></g><path d="M58.95 6c-1.794 0-3.4.792-4.5 2.04-.26.295-.487.618-.686.96h1.372c.22.375.39.78.523 1.2h-2.427c-.122.386-.21.785-.252 1.2h2.93c.02.198.04.396.04.6 0 .203-.013.403-.032.6H52.98c.042.415.13.814.252 1.2h2.434c-.134.422-.314.823-.532 1.2h-1.37c.198.34.426.664.685.96 1.1 1.248 2.705 2.04 4.5 2.04 3.313 0 6-2.687 6-6 0-3.314-2.687-6-6-6z" id="Shape" fill="#E9D419"/></g></g><g><path fill="#fff" d="M0 0h36v24H0z"/><path fill="#E6A124" d="M0 18h36v6H0z"/><path fill="#5565AF" d="M0 0h36v6H0z"/><g fill="#5565AF"><path d="M10.882 14.027c.244-.69.415-1.132.516-1.326l2.025-4.124h1.48L11.4 15.43H9.832l-.595-6.854h1.383l.24 4.125c.01.14.017.35.017.624-.007.322-.016.557-.028.703h.032zM14.285 15.43l1.463-6.854h1.43l-1.463 6.853h-1.43zM21.56 13.404c0 .654-.232 1.17-.693 1.55-.463.38-1.09.57-1.88.57-.69 0-1.247-.142-1.67-.423v-1.284c.604.337 1.164.507 1.68.507.35 0 .623-.066.82-.2.197-.132.295-.313.295-.546 0-.133-.02-.252-.063-.354-.043-.1-.104-.195-.182-.283-.078-.088-.27-.246-.58-.48-.432-.31-.736-.614-.91-.918-.176-.303-.263-.63-.263-.98 0-.403.096-.762.29-1.08.193-.317.47-.564.827-.74.358-.177.77-.265 1.236-.265.677 0 1.298.155 1.86.464l-.51 1.093c-.487-.23-.937-.347-1.35-.347-.26 0-.472.07-.637.21-.166.14-.248.328-.248.56 0 .19.052.357.155.498.103.142.334.33.694.565.378.25.662.525.85.826.186.303.28.655.28 1.058zM26.16 13.798H23.94l-.807 1.63h-1.5l3.59-6.88h1.75l.688 6.88H26.27l-.11-1.63zm-9.072-9.62l-.122-1.64c-.032-.41-.047-.804-.047-1.186v-.168c-.14.375-.31.772-.512 1.19l-.88 1.805h1.56z"/></g></g></g></svg>