<svg width="90" height="37" viewBox="0 0 90 37" xmlns="http://www.w3.org/2000/svg"><title>footer-logo</title><desc>Created with Sketch.</desc><g fill="none"><g fill="#fff"><path d="M42.94 17.593l-1.686-.838 1.82-3.553c-.883 0-1.634-.317-2.253-.952-.617-.634-.927-1.423-.927-2.366 0-.914.318-1.687.953-2.32.636-.632 1.402-.948 2.3-.948.94 0 1.723.328 2.35.984.625.656.938 1.41.938 2.263 0 .322-.05.645-.146.97-.097.324-.32.825-.67 1.503l-2.678 5.257zm-39.55-12.69c.368 0 .677-.135.927-.405s.376-.604.376-1.002c0-.408-.13-.75-.393-1.023-.262-.275-.568-.413-.918-.413-.368 0-.685.137-.95.41-.264.27-.396.61-.396 1.02 0 .4.128.738.386 1.008.257.27.58.404.967.404zM8.402 1.47V.463h5.5l-4.36 9.435h4.14v1.016H7.934L12.32 1.47H8.404zM15.975.463h5.973v1.03h-4.932V4.76h4.89v1.024h-4.89v4.1h4.89v1.03h-5.93V.46zm8.025 0h2.076c1.157 0 1.94.047 2.352.142.62.142 1.122.446 1.51.913.387.467.58 1.04.58 1.723 0 .568-.133 1.068-.4 1.5-.266.43-.648.756-1.144.976-.496.22-1.18.333-2.055.338l3.748 4.86h-1.29l-3.74-4.86h-.597v4.86H24V.46zm1.04 1.023v3.552l1.794.015c.695 0 1.208-.067 1.54-.2.334-.132.594-.344.78-.635.187-.29.28-.617.28-.977 0-.35-.094-.67-.283-.956-.188-.286-.436-.49-.743-.614-.307-.123-.817-.185-1.53-.185H25.04zM35.71.2c.76 0 1.416.186 1.966.56.55.374.975.946 1.275 1.716.3.77.45 1.842.45 3.215 0 1.39-.15 2.47-.456 3.24-.304.773-.714 1.34-1.23 1.703-.514.362-1.164.543-1.948.543s-1.443-.182-1.977-.547c-.535-.366-.953-.92-1.255-1.663-.302-.744-.453-1.803-.453-3.176 0-1.918.295-3.308.885-4.17C33.624.673 34.537.2 35.71.2zm.05 1.89c-.336 0-.634.107-.894.322-.26.216-.458.586-.595 1.112-.136.526-.204 1.296-.204 2.31 0 1.32.157 2.234.47 2.738.315.505.722.757 1.223.757.48 0 .864-.24 1.147-.72.345-.577.517-1.543.517-2.898 0-1.373-.154-2.32-.464-2.842-.31-.52-.71-.78-1.2-.78zM40.87.46h6.838v1.044l-4.705 9.67-1.68-.817 3.912-8.03h-4.365V.462z"/><path d="M43.22 20.844h4.475v.883h-3.59v2.802h3.59v.882h-3.59v4.39h-.886v-8.958zM-28.165 8.01h.893v8.96h-.893v-8.96zm5.25 0h.9v8.094h3.432v.866h-4.33v-8.96zm7.65 8.96l1.27-8.96h.147l3.632 7.35 3.595-7.35h.145l1.282 8.96h-.88l-.876-6.408-3.157 6.406h-.225l-3.2-6.456-.87 6.456h-.862zm13.228-1.67l.76-.457c.533.987 1.15 1.48 1.85 1.48.3 0 .582-.07.846-.21.262-.14.462-.328.6-.563.137-.236.206-.485.206-.75 0-.3-.1-.594-.303-.882-.28-.398-.79-.877-1.53-1.438-.746-.564-1.21-.972-1.392-1.224-.315-.422-.473-.88-.473-1.37 0-.39.094-.745.28-1.066.186-.32.448-.573.786-.758.338-.186.706-.278 1.103-.278.42 0 .815.105 1.18.314.368.21.755.593 1.164 1.154l-.73.554c-.335-.447-.62-.74-.858-.883-.237-.14-.495-.212-.774-.212-.36 0-.655.11-.884.33-.23.218-.343.488-.343.81 0 .193.04.382.122.565.08.183.23.382.443.597.118.113.503.412 1.154.895.773.572 1.303 1.082 1.59 1.53.288.445.432.894.432 1.344 0 .65-.246 1.213-.738 1.693s-1.09.718-1.795.718c-.543 0-1.035-.144-1.477-.434-.44-.29-.848-.777-1.22-1.46z"/></g><g transform="translate(3 2)"><ellipse stroke="#F37D35" stroke-width=".777" cx="16.391" cy="16.435" rx="16.391" ry="16.435"/><path d="M16.362 25.537c5.03 0 9.106-4.088 9.106-9.13 0-5.044-4.077-9.13-9.106-9.13-5.03 0-9.106 4.086-9.106 9.13 0 5.042 4.077 9.13 9.106 9.13zm.02-8.015c.604 0 1.093-.49 1.093-1.096 0-.605-.49-1.095-1.093-1.095s-1.092.49-1.092 1.096c0 .605.49 1.096 1.092 1.096zm-2.75-.113c.344 0 .62-.28.62-.622 0-.343-.276-.62-.62-.62-.34 0-.62.277-.62.62 0 .343.28.62.62.62zm5.443 0c.343 0 .62-.28.62-.622 0-.343-.277-.62-.62-.62-.342 0-.62.277-.62.62 0 .343.278.62.62.62zm-1.295-2.34c.342 0 .62-.277.62-.62 0-.344-.278-.622-.62-.622-.343 0-.62.278-.62.62 0 .345.277.623.62.623zm0 4.418c.342 0 .62-.278.62-.62 0-.344-.278-.623-.62-.623-.343 0-.62.28-.62.622 0 .343.277.62.62.62zm-2.85-4.417c.34 0 .62-.277.62-.62 0-.344-.28-.622-.62-.622-.343 0-.62.278-.62.62 0 .345.277.623.62.623zm0 4.418c.34 0 .62-.278.62-.62 0-.344-.28-.623-.62-.623-.343 0-.62.28-.62.622 0 .343.277.62.62.62z" fill="#B9683C"/><path d="M16.307 31.142c8.147 0 14.752-6.622 14.752-14.79 0-8.17-6.606-14.793-14.753-14.793S1.555 8.18 1.555 16.35c0 8.17 6.605 14.792 14.752 14.792zm.075-20.952c1.86 0 3.37-1.512 3.37-3.378 0-1.865-1.51-3.378-3.37-3.378s-3.37 1.513-3.37 3.378c0 1.866 1.51 3.378 3.37 3.378zm0 20.008c1.86 0 3.37-1.512 3.37-3.378s-1.51-3.378-3.37-3.378-3.37 1.512-3.37 3.378 1.51 3.378 3.37 3.378zM8.09 15.128c1.86 0 3.37-1.513 3.37-3.38 0-1.864-1.51-3.377-3.37-3.377s-3.37 1.514-3.37 3.38c0 1.865 1.51 3.377 3.37 3.377zm0 10.133c1.86 0 3.37-1.51 3.37-3.377 0-1.866-1.51-3.378-3.37-3.378s-3.37 1.512-3.37 3.378 1.51 3.378 3.37 3.378zm17.103-10.133c1.86 0 3.37-1.512 3.37-3.378s-1.51-3.38-3.37-3.38-3.37 1.514-3.37 3.38c0 1.865 1.51 3.377 3.37 3.377zm0 10.134c1.86 0 3.37-1.51 3.37-3.377 0-1.866-1.51-3.378-3.37-3.378s-3.37 1.512-3.37 3.378 1.51 3.378 3.37 3.378zm-8.81-7.738c.603 0 1.092-.49 1.092-1.096 0-.605-.49-1.095-1.093-1.095s-1.092.49-1.092 1.096c0 .605.49 1.096 1.092 1.096zm-2.75-.113c.343 0 .62-.28.62-.622 0-.343-.277-.62-.62-.62-.342 0-.62.277-.62.62 0 .343.278.62.62.62zm5.442 0c.343 0 .62-.28.62-.622 0-.343-.277-.62-.62-.62-.342 0-.62.277-.62.62 0 .343.278.62.62.62zm-1.295-2.34c.342 0 .62-.277.62-.62 0-.344-.278-.622-.62-.622-.343 0-.62.278-.62.62 0 .345.277.623.62.623zm0 4.418c.342 0 .62-.278.62-.62 0-.344-.278-.623-.62-.623-.343 0-.62.28-.62.622 0 .343.277.62.62.62zm-2.85-4.417c.34 0 .62-.277.62-.62 0-.344-.28-.622-.62-.622-.343 0-.62.278-.62.62 0 .345.277.623.62.623zm0 4.418c.34 0 .62-.278.62-.62 0-.344-.28-.623-.62-.623-.343 0-.62.28-.62.622 0 .343.277.62.62.62z" fill="#F37D35"/><path d="M11.92 17.41v-1.3s-8.81 0-8.81.52 8.81.78 8.81.78z" id="Path-2" fill="#B9693D"/><path d="M20.73 16.11v1.3s8.812 0 8.812-.52-8.81-.78-8.81-.78z" id="Path-2-Copy" fill="#B9693D"/><path d="M14.686 20.92l-1.125-.65s-4.404 7.63-3.954 7.89c.45.26 5.08-7.24 5.08-7.24z" id="Path-2" fill="#B9693D"/><path d="M17.967 12.6l1.125.65s4.405-7.63 3.955-7.89c-.45-.26-5.08 7.24-5.08 7.24z" id="Path-2-Copy" fill="#B9693D"/><path d="M19.092 20.27l-1.125.65s4.405 7.63 4.855 7.37c.45-.26-3.73-8.02-3.73-8.02z" fill="#B9693D"/><path d="M13.56 13.25l1.126-.65S10.28 4.97 9.83 5.23c-.45.258 3.73 8.02 3.73 8.02z" fill="#B9693D"/></g></g></svg>