<svg width="220" height="90" viewBox="0 0 220 90" xmlns="http://www.w3.org/2000/svg"><title>logo</title><desc>Created with Sketch.</desc><g fill="none"><g fill="#734E3E"><path d="M187.688 68.163l1.84-1.104c1.295 2.384 2.79 3.576 4.49 3.576.725 0 1.407-.17 2.045-.508.637-.338 1.123-.792 1.457-1.36.333-.57.5-1.174.5-1.812 0-.726-.245-1.437-.736-2.134-.677-.962-1.913-2.12-3.71-3.474-1.804-1.364-2.928-2.35-3.37-2.958-.765-1.02-1.147-2.125-1.147-3.312 0-.942.225-1.8.677-2.576.45-.775 1.086-1.386 1.906-1.832.82-.447 1.71-.67 2.67-.67 1.022 0 1.976.253 2.864.758.888.506 1.828 1.435 2.82 2.79l-1.768 1.34c-.814-1.08-1.508-1.792-2.082-2.135-.574-.344-1.2-.516-1.877-.516-.873 0-1.587.265-2.142.795-.554.53-.83 1.183-.83 1.958 0 .47.097.927.293 1.37.196.44.555.92 1.075 1.44.284.276 1.216.997 2.796 2.165 1.873 1.383 3.16 2.615 3.856 3.694.696 1.08 1.045 2.163 1.045 3.252 0 1.57-.596 2.934-1.788 4.092-1.192 1.158-2.642 1.737-4.35 1.737-1.314 0-2.506-.35-3.576-1.052-1.07-.7-2.056-1.876-2.958-3.525z" id="Path"/><path d="M155.636 72.196l3.077-21.65h.353l8.802 17.764 8.713-17.765h.354l3.106 21.65h-2.134l-2.12-15.483-7.653 15.484h-.545l-7.757-15.602-2.104 15.602h-2.09z"/><path d="M137.097 50.545h2.178v19.56h8.316v2.09h-10.493v-21.65zM124.37 50.545h2.165v21.65h-2.164v-21.65zM104.463 50.545h10.847v2.134h-8.698v6.77h8.698v2.134h-8.698v10.612h-2.15v-21.65zM195.223 16.792h16.57v2.524l-11.4 23.37-4.07-1.973 9.478-19.405h-10.577v-4.516zM182.713 16.157c1.843 0 3.43.452 4.765 1.356 1.333.905 2.364 2.287 3.09 4.147.728 1.86 1.09 4.45 1.09 7.77 0 3.355-.368 5.965-1.106 7.83-.74 1.867-1.732 3.238-2.98 4.114-1.248.876-2.822 1.313-4.722 1.313-1.9 0-3.497-.44-4.79-1.322-1.295-.88-2.308-2.22-3.04-4.018-.733-1.797-1.1-4.356-1.1-7.676 0-4.635.716-7.995 2.147-10.08 1.59-2.288 3.806-3.433 6.646-3.433zM-9.52-10.627c-.813 0-1.534.26-2.164.78-.63.52-1.11 1.417-1.442 2.687-.33 1.27-.497 3.13-.497 5.58 0 3.195.38 5.402 1.142 6.62.76 1.22 1.748 1.83 2.962 1.83 1.167 0 2.095-.578 2.782-1.735.834-1.396 1.252-3.732 1.252-7.006 0-3.32-.375-5.61-1.125-6.87-.75-1.258-1.72-1.887-2.91-1.887zM154.335 16.792h5.032c2.805 0 4.705.115 5.7.344 1.5.343 2.72 1.08 3.658 2.206.94 1.128 1.41 2.516 1.41 4.164 0 1.374-.325 2.582-.972 3.624-.646 1.04-1.57 1.828-2.773 2.36-1.202.533-2.862.805-4.98.816l9.084 11.746h-3.125L158.3 30.306h-1.442v11.746h-2.525v-25.26zm-93.65-13.203v8.585l4.343.034c1.683 0 2.928-.16 3.735-.482.807-.32 1.437-.832 1.89-1.536.45-.705.677-1.492.677-2.362 0-.847-.23-1.617-.687-2.31-.458-.692-1.06-1.187-1.803-1.485-.744-.297-1.98-.446-3.71-.446h-4.446zM134.888 16.792h14.476v2.49h-11.952v7.9h11.85v2.472h-11.85v9.908h11.85v2.49h-14.374v-25.26zM116.54 19.23v-2.438h13.324l-10.56 22.804h10.028v2.456h-13.926l10.63-22.82h-9.497zM103.788 42.687L99.7 40.66l4.414-8.585c-2.14 0-3.96-.767-5.46-2.3-1.5-1.535-2.25-3.44-2.25-5.72 0-2.21.77-4.077 2.31-5.606 1.54-1.53 3.397-2.293 5.572-2.293 2.278 0 4.176.793 5.693 2.378 1.515 1.586 2.274 3.41 2.274 5.47 0 .778-.118 1.56-.352 2.343-.235.785-.776 1.995-1.623 3.632l-6.492 12.707zM-87.963-3.827c.893 0 1.643-.328 2.25-.98.606-.653.91-1.46.91-2.42 0-.986-.318-1.81-.953-2.474-.636-.664-1.377-.996-2.224-.996-.893 0-1.66.33-2.3.987-.642.658-.963 1.48-.963 2.464 0 .974.312 1.787.936 2.44.623.652 1.404.98 2.343.98z"/></g><g transform="translate(7 5)"><circle stroke="#F37D35" cx="39.721" cy="39.721" r="39.721"/><path d="M39.65 61.72c12.19 0 22.07-9.88 22.07-22.07 0-12.186-9.88-22.066-22.07-22.066-12.186 0-22.066 9.88-22.066 22.067 0 12.19 9.88 22.07 22.067 22.07zm.05-19.372c1.463 0 2.648-1.185 2.648-2.648 0-1.462-1.185-2.648-2.648-2.648-1.462 0-2.648 1.186-2.648 2.648 0 1.463 1.186 2.648 2.648 2.648zm-6.662-.272c.83 0 1.502-.672 1.502-1.502s-.672-1.502-1.502-1.502-1.502.673-1.502 1.502c0 .83.673 1.502 1.502 1.502zm13.188 0c.83 0 1.502-.672 1.502-1.502s-.672-1.502-1.502-1.502-1.502.673-1.502 1.502c0 .83.673 1.502 1.502 1.502zm-3.14-5.652c.83 0 1.502-.672 1.502-1.502s-.672-1.502-1.502-1.502-1.502.673-1.502 1.502c0 .83.673 1.502 1.502 1.502zm0 10.676c.83 0 1.502-.672 1.502-1.502s-.672-1.502-1.502-1.502-1.502.673-1.502 1.502c0 .83.673 1.502 1.502 1.502zm-6.908-10.676c.83 0 1.502-.672 1.502-1.502s-.672-1.502-1.502-1.502-1.502.673-1.502 1.502c0 .83.673 1.502 1.502 1.502zm0 10.676c.83 0 1.502-.672 1.502-1.502s-.672-1.502-1.502-1.502-1.502.673-1.502 1.502c0 .83.673 1.502 1.502 1.502z" fill-opacity=".56" fill="#F37D35"/><path d="M39.517 75.266c19.744 0 35.75-16.005 35.75-35.75 0-19.743-16.006-35.748-35.75-35.748s-35.75 16.005-35.75 35.75c0 19.743 16.006 35.748 35.75 35.748zm.183-50.638c4.51 0 8.164-3.655 8.164-8.164 0-4.51-3.655-8.164-8.164-8.164-4.51 0-8.164 3.655-8.164 8.164 0 4.51 3.655 8.164 8.164 8.164zm0 48.356c4.51 0 8.164-3.655 8.164-8.164 0-4.51-3.655-8.164-8.164-8.164-4.51 0-8.164 3.655-8.164 8.164 0 4.51 3.655 8.164 8.164 8.164zM19.604 36.56c4.51 0 8.164-3.655 8.164-8.164 0-4.51-3.655-8.164-8.164-8.164-4.51 0-8.164 3.655-8.164 8.164 0 4.51 3.655 8.164 8.164 8.164zm0 24.492c4.51 0 8.164-3.655 8.164-8.164 0-4.51-3.655-8.164-8.164-8.164-4.51 0-8.164 3.655-8.164 8.164 0 4.51 3.655 8.164 8.164 8.164zM61.052 36.56c4.51 0 8.164-3.655 8.164-8.164 0-4.51-3.655-8.164-8.164-8.164-4.51 0-8.164 3.655-8.164 8.164 0 4.51 3.655 8.164 8.164 8.164zm0 24.492c4.51 0 8.164-3.655 8.164-8.164 0-4.51-3.655-8.164-8.164-8.164-4.51 0-8.164 3.655-8.164 8.164 0 4.51 3.655 8.164 8.164 8.164zM39.7 42.348c1.463 0 2.648-1.185 2.648-2.648 0-1.462-1.185-2.648-2.648-2.648-1.462 0-2.648 1.186-2.648 2.648 0 1.463 1.186 2.648 2.648 2.648zm-6.662-.272c.83 0 1.502-.672 1.502-1.502s-.672-1.502-1.502-1.502-1.502.673-1.502 1.502c0 .83.673 1.502 1.502 1.502zm13.188 0c.83 0 1.502-.672 1.502-1.502s-.672-1.502-1.502-1.502-1.502.673-1.502 1.502c0 .83.673 1.502 1.502 1.502zm-3.14-5.652c.83 0 1.502-.672 1.502-1.502s-.672-1.502-1.502-1.502-1.502.673-1.502 1.502c0 .83.673 1.502 1.502 1.502zm0 10.676c.83 0 1.502-.672 1.502-1.502s-.672-1.502-1.502-1.502-1.502.673-1.502 1.502c0 .83.673 1.502 1.502 1.502zm-6.908-10.676c.83 0 1.502-.672 1.502-1.502s-.672-1.502-1.502-1.502-1.502.673-1.502 1.502c0 .83.673 1.502 1.502 1.502zm0 10.676c.83 0 1.502-.672 1.502-1.502s-.672-1.502-1.502-1.502-1.502.673-1.502 1.502c0 .83.673 1.502 1.502 1.502z" fill="#F37D35"/><path d="M28.888 42.076v-3.14s-21.352 0-21.352 1.256 21.352 1.884 21.352 1.884z" id="Path-2" fill-opacity=".5" fill="#fff"/><path d="M50.24 38.936v3.14s21.352 0 21.352-1.256-21.352-1.884-21.352-1.884z" id="Path-2-Copy" fill-opacity=".5" fill="#fff"/><path d="M35.695 50.69l-2.728-1.574s-10.71 18.548-9.618 19.178c1.09.63 12.345-17.603 12.345-17.603z" id="Path-2" fill-opacity=".5" fill="#fff"/><path d="M43.676 30.57l2.727 1.573s10.71-18.548 9.618-19.178c-1.09-.63-12.344 17.604-12.344 17.604z" id="Path-2-Copy" fill-opacity=".5" fill="#fff"/><path d="M46.403 49.116l-2.727 1.575s10.708 18.55 11.8 17.92c1.09-.63-9.073-19.494-9.073-19.494z" fill-opacity=".5" fill="#fff"/><path d="M32.967 32.143l2.728-1.574s-10.71-18.55-11.8-17.92c-1.09.63 9.072 19.493 9.072 19.493z" fill-opacity=".5" fill="#fff"/></g></g></svg>